<?xml version="1.0" encoding="utf-8"?>
<!-- Generator: Adobe Illustrator 26.2.1, SVG Export Plug-In . SVG Version: 6.00 Build 0)  -->
<svg version="1.1" id="Layer_1" xmlns="http://www.w3.org/2000/svg" xmlns:xlink="http://www.w3.org/1999/xlink" x="0px" y="0px"
	 viewBox="0 0 180 180" style="enable-background:new 0 0 180 180;" xml:space="preserve">
<style type="text/css">
	.st0{fill:#535F8D;}
	.st1{fill:#E55E26;}
	.st2{fill:#4183C3;}
</style>
<path class="st0" d="M26.3,106.4L87,90.9v65.2c0,0-28.9,10.6-45.3,7.6C39.7,151.4,29.3,114.5,26.3,106.4z"/>
<path class="st0" d="M92.9,90.9l60.4,15.2c0,0-12.6,35.4-12.5,43c-9-2.2-27.4-1-47.8,5.2C92.8,120.6,92.9,90.9,92.9,90.9z"/>
<path class="st1" d="M98.3,16.8h-17c-0.2,0-0.3-0.2-0.3-0.3V0.8c0-0.2,0.2-0.3,0.3-0.3h17c0.2,0,0.3,0.2,0.3,0.3v15.7
	C98.6,16.7,98.5,16.8,98.3,16.8z"/>
<path class="st1" d="M117,34.6H62.7c-0.1,0-0.2-0.1-0.2-0.2V24.2c0-0.1,0.1-0.2,0.2-0.2H117c0.1,0,0.2,0.1,0.2,0.2v10.1
	C117.3,34.4,117.1,34.6,117,34.6z"/>
<path class="st1" d="M47.9,42h83.7c1.5,0,2.7,1.2,2.7,2.7v21.1c0,1.8-1.7,3-3.3,2.6c-9.1-2.5-33.9-9.1-41.1-9.1
	c-7.3-0.1-32.1,6.9-41.2,9.5c-1.7,0.5-3.4-0.8-3.4-2.6V44.7C45.3,43.2,46.5,42,47.9,42z"/>
<path class="st0" d="M17.1,85.9c0,0-0.1-1.4,0.6-1.6c0.6-0.2,38.2-9.5,38.2-9.5l26.7-6.9c0,0,7.2-2.3,14.5,0.2
	c10.5,3.5,64.5,16.3,64.5,16.3s1.4,0.2,0.7,1.6c-0.6,1.4-6.7,14.9-6.7,14.9L97.8,86.1c0,0-5.7-2.5-15.2-0.2s-58.6,15-58.6,15
	L17.1,85.9z"/>
<path class="st2" d="M26.3,167.7c0,0,37.7,1.8,59.9-5.5c51-16.7,59.7-7.9,72.3,1.4c-24.5-6.8-30.3,0.6-53.1,10.3
	C75,183.9,43.3,179.5,26.3,167.7z"/>
</svg>
