<?xml version="1.0" encoding="utf-8"?>
<!-- Generator: Adobe Illustrator 26.2.1, SVG Export Plug-In . SVG Version: 6.00 Build 0)  -->
<svg version="1.1" id="Layer_1" xmlns="http://www.w3.org/2000/svg" xmlns:xlink="http://www.w3.org/1999/xlink" x="0px" y="0px"
	 viewBox="0 0 324.2 92.4" style="enable-background:new 0 0 324.2 92.4;" xml:space="preserve">
<style type="text/css">
	.st0{fill:#EBF8FF;}
	.st1{fill:#78B7FF;}
	.st2{fill:#FAA81A;}
	.st3{fill:#A4F8FF;}
</style>
<g>
	<path class="st0" d="M22.7,46.1h-9.1v-2.8c0-1.3-0.1-2.1-0.3-2.5s-0.6-0.5-1.2-0.5c-0.6,0-1,0.2-1.3,0.7s-0.5,1.2-0.5,2.2
		c0,1.3,0.2,2.2,0.5,2.8s1.2,1.4,2.8,2.3c4.4,2.6,7.1,4.7,8.2,6.4c1.1,1.7,1.7,4.3,1.7,8c0,2.7-0.3,4.7-0.9,5.9
		c-0.6,1.3-1.8,2.3-3.6,3.2c-1.8,0.9-3.9,1.3-6.3,1.3c-2.6,0-4.8-0.5-6.7-1.5s-3.1-2.3-3.6-3.8c-0.6-1.5-0.9-3.7-0.9-6.5v-2.5h9.1
		v4.6c0,1.4,0.1,2.3,0.4,2.7s0.7,0.6,1.4,0.6c0.6,0,1.1-0.3,1.5-0.8c0.3-0.5,0.5-1.3,0.5-2.3c0-2.2-0.3-3.7-0.9-4.3
		c-0.6-0.7-2.1-1.8-4.6-3.4c-2.4-1.6-4-2.8-4.8-3.5s-1.4-1.7-2-3c-0.5-1.3-0.8-2.9-0.8-4.9c0-2.9,0.4-5,1.1-6.3
		C3,36.8,4.2,35.8,5.8,35s3.6-1.1,5.9-1.1c2.5,0,4.7,0.4,6.5,1.2s3,1.9,3.6,3.1c0.6,1.2,0.9,3.4,0.9,6.4V46.1z"/>
	<path class="st0" d="M26.5,34.7h16.3v7.5h-6.5v7.1h6.1v7.2h-6.1v8.3h7.2v7.5h-17V34.7z"/>
	<path class="st0" d="M68.6,56.7c0,3.8-0.1,6.5-0.3,8c-0.2,1.6-0.7,3-1.7,4.3c-0.9,1.3-2.2,2.3-3.8,3c-1.6,0.7-3.5,1-5.6,1
		c-2,0-3.8-0.3-5.4-1c-1.6-0.7-2.9-1.6-3.9-3c-1-1.3-1.6-2.7-1.7-4.3c-0.2-1.5-0.3-4.3-0.3-8.1v-6.4c0-3.8,0.1-6.5,0.3-8
		c0.2-1.6,0.7-3,1.7-4.3c0.9-1.3,2.2-2.3,3.8-3s3.5-1,5.6-1c2,0,3.8,0.3,5.4,1c1.6,0.7,2.9,1.6,3.9,3c1,1.3,1.6,2.7,1.7,4.3
		c0.2,1.5,0.3,4.3,0.3,8.1V56.7z M58.9,44.3c0-1.7-0.1-2.9-0.3-3.4s-0.6-0.7-1.2-0.7c-0.5,0-0.9,0.2-1.2,0.6
		c-0.3,0.4-0.4,1.6-0.4,3.5v17.6c0,2.2,0.1,3.5,0.3,4s0.6,0.8,1.2,0.8c0.7,0,1.1-0.3,1.3-0.9s0.3-2,0.3-4.2
		C58.9,61.6,58.9,44.3,58.9,44.3z"/>
	<path class="st0" d="M187.3,51.1h-9.8v-6.5c0-1.9-0.1-3.1-0.3-3.6s-0.7-0.7-1.4-0.7c-0.8,0-1.3,0.3-1.5,0.9
		c-0.2,0.6-0.3,1.8-0.3,3.7v17.5c0,1.8,0.1,3,0.3,3.6s0.7,0.8,1.5,0.8c0.7,0,1.2-0.3,1.4-0.8c0.2-0.6,0.3-1.9,0.3-3.9v-4.7h9.8v1.5
		c0,3.9-0.3,6.7-0.8,8.3s-1.8,3.1-3.6,4.3c-1.9,1.2-4.2,1.8-7,1.8c-2.9,0-5.2-0.5-7.1-1.6c-1.9-1-3.1-2.5-3.7-4.3
		c-0.6-1.8-0.9-4.6-0.9-8.3v-11c0-2.7,0.1-4.7,0.3-6.1c0.2-1.4,0.7-2.7,1.7-3.9c0.9-1.3,2.2-2.2,3.8-3c1.6-0.7,3.5-1.1,5.6-1.1
		c2.9,0,5.3,0.6,7.1,1.7s3.1,2.5,3.7,4.2c0.6,1.7,0.9,4.2,0.9,7.8V51.1z"/>
	<path class="st0" d="M190.9,34.7h6.9c4.6,0,7.7,0.2,9.4,0.5c1.6,0.4,3,1.3,4,2.7c1,1.5,1.5,3.8,1.5,7c0,2.9-0.4,4.9-1.1,5.9
		c-0.7,1-2.2,1.6-4.3,1.8c1.9,0.5,3.2,1.1,3.9,1.9c0.7,0.8,1.1,1.5,1.2,2.2c0.2,0.7,0.2,2.5,0.2,5.6v9.9h-9.1V59.8
		c0-2-0.2-3.3-0.5-3.7c-0.3-0.5-1.1-0.7-2.5-0.7v17h-9.8V34.7H190.9z M200.6,41.1v8.4c1.1,0,1.9-0.2,2.3-0.5
		c0.4-0.3,0.7-1.3,0.7-2.9V44c0-1.2-0.2-2-0.6-2.3S201.8,41.1,200.6,41.1z"/>
	<path class="st0" d="M238.7,34.7v25.1c0,2.8-0.1,4.9-0.3,6c-0.2,1.2-0.7,2.3-1.6,3.6c-0.9,1.2-2.1,2.1-3.6,2.8s-3.3,0.9-5.3,0.9
		c-2.2,0-4.2-0.4-5.9-1.1s-3-1.7-3.9-2.9c-0.9-1.2-1.4-2.5-1.5-3.8c-0.2-1.3-0.2-4.1-0.2-8.3V34.7h9.8v28.2c0,1.6,0.1,2.7,0.3,3.1
		c0.2,0.5,0.5,0.7,1.1,0.7s1-0.3,1.2-0.8s0.3-1.7,0.3-3.6V34.7H238.7z"/>
	<path class="st0" d="M252.3,34.7v37.6h-9.8V34.7H252.3z"/>
	<path class="st0" d="M276.9,46.1h-9.1v-2.8c0-1.3-0.1-2.1-0.3-2.5c-0.2-0.4-0.6-0.5-1.2-0.5s-1,0.2-1.3,0.7s-0.5,1.2-0.5,2.2
		c0,1.3,0.2,2.2,0.5,2.8s1.2,1.4,2.8,2.3c4.4,2.6,7.1,4.7,8.2,6.4s1.7,4.3,1.7,8c0,2.7-0.3,4.7-0.9,5.9s-1.8,2.3-3.6,3.2
		c-1.8,0.9-3.9,1.3-6.3,1.3c-2.6,0-4.9-0.5-6.7-1.5c-1.9-1-3.1-2.3-3.6-3.8c-0.6-1.5-0.9-3.7-0.9-6.5v-2.5h9.1v4.6
		c0,1.4,0.1,2.3,0.4,2.7s0.7,0.6,1.4,0.6s1.1-0.3,1.5-0.8c0.3-0.5,0.5-1.3,0.5-2.3c0-2.2-0.3-3.7-0.9-4.3c-0.6-0.7-2.1-1.8-4.6-3.4
		c-2.4-1.6-4-2.8-4.8-3.5s-1.4-1.7-2-3c-0.5-1.3-0.8-2.9-0.8-4.9c0-2.9,0.4-5,1.1-6.3c0.7-1.3,1.9-2.4,3.6-3.1
		c1.6-0.8,3.6-1.1,5.9-1.1c2.5,0,4.7,0.4,6.5,1.2s3,1.9,3.6,3.1c0.6,1.2,0.9,3.4,0.9,6.4v1.4H276.9z"/>
	<path class="st0" d="M280.8,34.7h16.3v7.5h-6.5v7.1h6.1v7.2h-6.1v8.3h7.2v7.5h-17V34.7z"/>
	<path class="st0" d="M300.5,34.7h6.9c4.6,0,7.7,0.2,9.4,0.5c1.6,0.4,3,1.3,4,2.7c1,1.5,1.5,3.8,1.5,7c0,2.9-0.4,4.9-1.1,5.9
		s-2.2,1.6-4.3,1.8c1.9,0.5,3.2,1.1,3.9,1.9c0.7,0.8,1.1,1.5,1.2,2.2c0.2,0.7,0.2,2.5,0.2,5.6v9.9h-9.1V59.8c0-2-0.2-3.3-0.5-3.7
		c-0.3-0.5-1.1-0.7-2.5-0.7v17h-9.8V34.7H300.5z M310.3,41.1v8.4c1.1,0,1.9-0.2,2.3-0.5s0.7-1.3,0.7-2.9V44c0-1.2-0.2-2-0.6-2.3
		S311.4,41.1,310.3,41.1z"/>
</g>
<path class="st1" d="M84.5,54.7l31.4-8v33.7c0,0-14.9,5.5-23.4,3.9C91.4,77.9,86.1,58.8,84.5,54.7z"/>
<path class="st1" d="M118.9,46.7l31.2,7.8c0,0-6.5,18.3-6.5,22.2c-4.7-1.2-14.1-0.5-24.7,2.7C118.8,62,118.9,46.7,118.9,46.7z"/>
<path class="st2" d="M120.8,8.4h-7c-0.6,0-1-0.5-1-1V1c0-0.6,0.5-1,1-1h7c0.6,0,1,0.5,1,1v6.3C121.8,8,121.4,8.4,120.8,8.4z"/>
<path class="st2" d="M130.7,17.6H104c-0.4,0-0.8-0.4-0.8-0.8v-3.9c0-0.4,0.4-0.8,0.8-0.8h26.7c0.4,0,0.8,0.4,0.8,0.8v3.9
	C131.5,17.2,131.1,17.6,130.7,17.6z"/>
<path class="st2" d="M95.7,21.4h43.2c0.8,0,1.4,0.6,1.4,1.4v10.9c0,0.9-0.9,1.6-1.7,1.3c-4.7-1.3-17.5-4.7-21.2-4.7
	c-3.8,0-16.6,3.6-21.3,4.9c-0.9,0.3-1.8-0.4-1.8-1.3V22.8C94.3,22,94.9,21.4,95.7,21.4z"/>
<path class="st3" d="M79.8,44.1c0,0,0-0.7,0.3-0.8s19.7-4.9,19.7-4.9l13.8-3.6c0,0,3.7-1.2,7.5,0.1c5.4,1.8,33.3,8.4,33.3,8.4
	s0.7,0.1,0.4,0.8s-3.4,7.7-3.4,7.7l-29.9-7.6c0,0-2.9-1.3-7.8-0.1s-30.3,7.7-30.3,7.7L79.8,44.1z"/>
<path class="st3" d="M84.5,86.3c0,0,19.5,0.9,30.9-2.8c26.3-8.6,30.8-4.1,37.3,0.7c-12.7-3.5-15.6,0.3-27.4,5.3
	C109.6,94.7,93.3,92.4,84.5,86.3z"/>
</svg>
